<svg xmlns="http://www.w3.org/2000/svg" width="51.473" height="51.408" viewBox="0 0 51.473 51.408">
  <path id="Instagram-Icon-09hnmc" d="M0,25.2A25.236,25.236,0,1,1,25.235,50.408,25.242,25.242,0,0,1,0,25.2Zm10.114-6.267V31.5A8.613,8.613,0,0,0,18.7,40.093H31.736A8.641,8.641,0,0,0,40.359,31.5V18.936a8.648,8.648,0,0,0-8.623-8.624H18.7A8.62,8.62,0,0,0,10.114,18.936ZM18.7,36.485a4.953,4.953,0,0,1-4.941-4.942V18.975A4.982,4.982,0,0,1,18.7,14H31.736a4.989,4.989,0,0,1,4.974,4.974V31.543a4.96,4.96,0,0,1-4.974,4.942ZM17.673,25.244a7.562,7.562,0,1,0,7.562-7.563A7.556,7.556,0,0,0,17.673,25.244ZM31.239,17.35a1.674,1.674,0,1,0,1.691-1.691A1.676,1.676,0,0,0,31.239,17.35ZM19.862,25.244a5.373,5.373,0,1,1,5.373,5.37A5.373,5.373,0,0,1,19.862,25.244Z" transform="translate(0.5 0.5)" stroke="rgba(0,0,0,0)" stroke-miterlimit="10" stroke-width="1"/>
</svg>
